# xmcd
#
# Track frame offsets: 
#        150
#        14556
#        26652
#        39187
#        54440
#        77731
#        95541
#        111976
#        134116
#        151893
#        170011
#        183983
#        199103
#        208834
#        223942
#        241170
#        257090
#        272942
#
# Disc length: 4150 seconds
#
# Revision: 1
# Processed by: cddbd v1.5.2PL0 Copyright (c) Steve Scherf et al.
# Submitted via: ExactAudioCopyFreeDBPlugin 1.0
#
DISCID=0a103412
DTITLE=Various Artist - Soul and Blues Forever CD1
DYEAR=2006
DGENRE=Soul
TTITLE0=The Staple Singers - (Sittin' On) the Dock of the Bay
TTITLE1=William Bell - Private Number
TTITLE2=Jean Knight - Mr Big Stuff
TTITLE3=Eddie Floyd - My Girl
TTITLE4=The Dramatics - In The Rain
TTITLE5=Shirley Brown - Woman to woman
TTITLE6=Issac Hayes - Never Can Say Goodbye
TTITLE7=Margie Joseph - Stop! In the Name of Love
TTITLE8=Booker T and The MGs - Hang 'Em High
TTITLE9=Soul Children - Don't Take My Sunshine
TTITLE10=Barbra Lewis - That's The way I Like It
TTITLE11=Willian Bell and Carla Thomas - All I Have To Do Is Dream
TTITLE12=Otis Redding - Respect
TTITLE13=Frederick Knight - I've Been Lonely For So Long
TTITLE14=Mel and Tim - Starting Over Again
TTITLE15=The Newcomers - Too Much Going To Say Goodbye
TTITLE16=John Gary Williams - Come What May
TTITLE17=The Bar-Keys - Holy Ghost
EXTD=
EXTT0=
EXTT1=
EXTT2=
EXTT3=
EXTT4=
EXTT5=
EXTT6=
EXTT7=
EXTT8=
EXTT9=
EXTT10=
EXTT11=
EXTT12=
EXTT13=
EXTT14=
EXTT15=
EXTT16=
EXTT17=
PLAYORDER=
